<?xml version="1.0" standalone="no"?>
<!DOCTYPE svg PUBLIC "-//W3C//DTD SVG 1.1//EN" "http://www.w3.org/Graphics/SVG/1.1/DTD/svg11.dtd">
<svg width="122mm" height="121mm" viewBox="-61 -63 122 121" xmlns="http://www.w3.org/2000/svg" version="1.1">
<title>OpenSCAD Model</title>
<path d="
M -32.8995,28.1005 L -32.8626,27.6312 L -32.7527,27.1735 L -32.5725,26.7385 L -32.3265,26.3371 L -32.0208,25.9792
 L -31.6629,25.6735 L -31.2615,25.4275 L -30.8265,25.2473 L -30.3688,25.1374 L -29.8995,25.1005 L -29.4302,25.1374
 L -28.9724,25.2473 L -28.5375,25.4275 L -28.1361,25.6735 L -27.7782,25.9792 L -27.4724,26.3371 L -27.2265,26.7385
 L -27.0463,27.1735 L -26.9364,27.6312 L -26.8995,28.1005 L -26.9364,28.5698 L -27.0463,29.0276 L -27.2265,29.4625
 L -27.4724,29.8639 L -27.7782,30.2218 L -28.1361,30.5276 L -28.5375,30.7735 L -28.9724,30.9537 L -29.4302,31.0636
 L -29.8995,31.1005 L -30.3688,31.0636 L -30.8265,30.9537 L -31.2615,30.7735 L -31.6629,30.5276 L -32.0208,30.2218
 L -32.3265,29.8639 L -32.5725,29.4625 L -32.7527,29.0276 L -32.8626,28.5698 z
" stroke="black" fill="black" stroke-width="0.5"/>
</svg>
