<?xml version="1.0" standalone="no"?>
<!DOCTYPE svg PUBLIC "-//W3C//DTD SVG 1.1//EN" "http://www.w3.org/Graphics/SVG/1.1/DTD/svg11.dtd">
<svg width="122mm" height="121mm" viewBox="-61 -63 122 121" xmlns="http://www.w3.org/2000/svg" version="1.1">
<title>OpenSCAD Model</title>

<!-- Pan encoder 1 -->
<!-- <path d="
M -53.59,-34 L -53.5703,-34.2503 L -53.5117,-34.4944 L -53.4156,-34.7264 L -53.2844,-34.9405 L -53.1214,-35.1314 L -52.9305,-35.2944 L -52.7164,-35.4256 L -52.4844,-35.5217 L -52.2403,-35.5803 L -51.99,-35.6 L -51.7397,-35.5803 L -51.4956,-35.5217 L -51.2636,-35.4256 L -51.0495,-35.2944 L -50.8586,-35.1314 L -50.6956,-34.9405 L -50.5644,-34.7264 L -50.4683,-34.4944 L -50.4097,-34.2503 L -50.39,-34 L -50.4097,-33.7497 L -50.4683,-33.5056 L -50.5644,-33.2736 L -50.6956,-33.0595 L -50.8586,-32.8686 L -51.0495,-32.7056 L -51.2636,-32.5744 L -51.4956,-32.4783 L -51.7397,-32.4197 L -51.99,-32.4 L -52.2403,-32.4197 L -52.4844,-32.4783 L -52.7164,-32.5744 L -52.9305,-32.7056 L -53.1214,-32.8686 L -53.2844,-33.0595 L -53.4156,-33.2736 L -53.5117,-33.5056 L -53.5703,-33.7497 z
" stroke="black" fill="black" stroke-width="0.1"/> -->
<circle cx="-51.99" cy="-34" r="0.1" stroke="black" fill="black" stroke-width=".01" />
</svg>
