<?xml version="1.0" standalone="no"?>
<!DOCTYPE svg PUBLIC "-//W3C//DTD SVG 1.1//EN" "http://www.w3.org/Graphics/SVG/1.1/DTD/svg11.dtd">
<svg width="122mm" height="121mm" viewBox="-61 -63 122 121" xmlns="http://www.w3.org/2000/svg" version="1.1">
<title>OpenSCAD Model</title>
<path d="
M -53.4519,9.14859 L -53.4519,7.98555 L -47.1279,4.63429 L -53.4519,4.63429 L -53.4519,3.78615 L -46.3824,3.78615
 L -46.3824,5.21341 L -52.1557,8.27037 L -46.3824,8.27037 L -46.3824,9.14859 z
M -53.4519,2.58861 L -53.4519,1.58704 L -51.4852,0.893967 L -51.4852,-2.16298 L -53.4519,-2.85605 L -53.4519,-3.81015
 L -46.3824,-1.2373 L -46.3824,0.0158234 z
M -53.4519,-7.7697 L -53.4519,-8.70952 L -46.3824,-8.70952 L -46.3824,-6.79181 L -46.3943,-6.38937 L -46.4299,-6.0302
 L -46.4893,-5.71429 L -46.574,-5.43105 L -46.6856,-5.16997 L -46.8241,-4.93106 L -47.0193,-4.68239 L -47.2441,-4.47432
 L -47.4984,-4.30687 L -47.7912,-4.18422 L -48.1315,-4.11063 L -48.5193,-4.08609 L -48.8251,-4.10429 L -49.1155,-4.15889
 L -49.3907,-4.24989 L -49.6463,-4.37357 L -49.8782,-4.52626 L -50.0863,-4.70798 L -50.3098,-4.9664 L -50.4926,-5.25438
 L -50.6349,-5.57191 L -50.7364,-5.9332 L -50.7973,-6.35249 L -50.8176,-6.82982 L -50.8176,-7.7697 z
M -50.6743,0.604446 L -47.2038,-0.63446 L -50.6743,-1.87816 z
M -50.0157,-6.97696 L -50.0044,-6.62091 L -49.9704,-6.31236 L -49.9137,-6.05127 L -49.8323,-5.82869 L -49.724,-5.63567
 L -49.5888,-5.47217 L -49.4344,-5.33794 L -49.2747,-5.23273 L -49.1097,-5.15654 L -48.9352,-5.10509 L -48.7471,-5.07422
 L -48.5452,-5.06392 L -48.3123,-5.07817 L -48.1004,-5.12088 L -47.9096,-5.19209 L -47.7404,-5.29231 L -47.5934,-5.42207
 L -47.4684,-5.58136 L -47.3796,-5.74039 L -47.3093,-5.91367 L -47.2574,-6.10118 L -47.2218,-6.31293 L -47.2004,-6.55894
 L -47.1933,-6.83926 L -47.1933,-7.7697 L -50.0157,-7.7697 z
" stroke="black" fill="black" stroke-width="0.5"/>
</svg>
