<?xml version="1.0" standalone="no"?>
<!DOCTYPE svg PUBLIC "-//W3C//DTD SVG 1.1//EN" "http://www.w3.org/Graphics/SVG/1.1/DTD/svg11.dtd">
<svg width="122mm" height="121mm" viewBox="-61 -63 122 121" xmlns="http://www.w3.org/2000/svg" version="1.1">
<title>OpenSCAD Model</title>
<!-- <path d="
M -30,38 L -29.8769,36.4357 L -29.5106,34.9098 L -28.9101,33.4601 L -28.0902,32.1221 L -27.0711,30.9289
 L -25.8779,29.9098 L -24.5399,29.0899 L -23.0902,28.4894 L -21.5643,28.1231 L -20,28 L -18.4357,28.1231
 L -16.9098,28.4894 L -15.4601,29.0899 L -14.1221,29.9098 L -12.9289,30.9289 L -11.9098,32.1221 L -11.0899,33.4601
 L -10.4894,34.9098 L -10.1231,36.4357 L -10,38 L -10.1231,39.5643 L -10.4894,41.0902 L -11.0899,42.5399
 L -11.9098,43.8779 L -12.9289,45.0711 L -14.1221,46.0902 L -15.4601,46.9101 L -16.9098,47.5106 L -18.4357,47.8769
 L -20,48 L -21.5643,47.8769 L -23.0902,47.5106 L -24.5399,46.9101 L -25.8779,46.0902 L -27.0711,45.0711
 L -28.0902,43.8779 L -28.9101,42.5399 L -29.5106,41.0902 L -29.8769,39.5643 z
" stroke="black" fill="black" stroke-width="0.01"/> -->
<!-- 9.95 matches the original hole.  Bit is 3.125mm.  Subtract half that from the radius. -->
<circle cx="-20.0" cy="38.0" r="8.3875" stroke="black" fill="white" stroke-width="0.01" />
</svg>
