<?xml version="1.0" standalone="no"?>
<!DOCTYPE svg PUBLIC "-//W3C//DTD SVG 1.1//EN" "http://www.w3.org/Graphics/SVG/1.1/DTD/svg11.dtd">
<svg width="122mm" height="121mm" viewBox="-61 -63 122 121" xmlns="http://www.w3.org/2000/svg" version="1.1">
<title>OpenSCAD Model</title>

<!-- Pan encoder 3 -->
<!-- <path d="
M -27.61,-34 L -27.5903,-34.2503 L -27.5317,-34.4944 L -27.4356,-34.7264 L -27.3044,-34.9405 L -27.1414,-35.1314 L -26.9505,-35.2944 L -26.7364,-35.4256 L -26.5044,-35.5217 L -26.2603,-35.5803 L -26.01,-35.6 L -25.7597,-35.5803 L -25.5156,-35.5217 L -25.2836,-35.4256 L -25.0695,-35.2944 L -24.8786,-35.1314 L -24.7156,-34.9405 L -24.5844,-34.7264 L -24.4883,-34.4944 L -24.4297,-34.2503 L -24.41,-34 L -24.4297,-33.7497 L -24.4883,-33.5056 L -24.5844,-33.2736 L -24.7156,-33.0595 L -24.8786,-32.8686 L -25.0695,-32.7056 L -25.2836,-32.5744 L -25.5156,-32.4783 L -25.7597,-32.4197 L -26.01,-32.4 L -26.2603,-32.4197 L -26.5044,-32.4783 L -26.7364,-32.5744 L -26.9505,-32.7056 L -27.1414,-32.8686 L -27.3044,-33.0595 L -27.4356,-33.2736 L -27.5317,-33.5056 L -27.5903,-33.7497 z
" stroke="black" fill="black" stroke-width="0.1"/> -->
<circle cx="-26.01" cy="-34" r="0.1" stroke="black" fill="black" stroke-width="0.01" />
</svg>
