<?xml version="1.0" encoding="UTF-8" standalone="no"?>
<svg
   width="130mm"
   height="129mm"
   viewBox="-65 -67 130 129"
   version="1.1"
   id="svg3"
   sodipodi:docname="full_depth_outline.svg"
   inkscape:version="1.3.2 (091e20e, 2023-11-25)"
   xmlns:inkscape="http://www.inkscape.org/namespaces/inkscape"
   xmlns:sodipodi="http://sodipodi.sourceforge.net/DTD/sodipodi-0.dtd"
   xmlns="http://www.w3.org/2000/svg"
   xmlns:svg="http://www.w3.org/2000/svg"><defs
   id="defs3" />
<sodipodi:namedview
   id="namedview3"
   pagecolor="#ffffff"
   bordercolor="#000000"
   borderopacity="0.25"
   inkscape:showpageshadow="2"
   inkscape:pageopacity="0.0"
   inkscape:pagecheckerboard="0"
   inkscape:deskcolor="#d1d1d1"
   inkscape:document-units="mm"
   inkscape:zoom="1.5580174"
   inkscape:cx="266.04324"
   inkscape:cy="233.95117"
   inkscape:window-width="1536"
   inkscape:window-height="1006"
   inkscape:window-x="0"
   inkscape:window-y="38"
   inkscape:window-maximized="0"
   inkscape:current-layer="svg3"
   showgrid="false" />
<title
   id="title1">OpenSCAD Model</title>
<!-- Part 1 -->
<!-- Original
  <path
     d=" M -61,56 L -54,56 L -54,34.5477 L -54.4314,34.4441 L -55.3374,34.0688 L -56.1737,33.5564  L -56.9194,32.9194 L -57.5564,32.1737 L -58.0688,31.3374 L -58.4441,30.4314 L -58.6731,29.4777 L -58.75,28.5  L -58.6731,27.5223 L -58.4441,26.5686 L -58.0688,25.6626 L -57.5564,24.8263 L -56.9194,24.0806 L -56.1737,23.4436  L -55.3374,22.9312 L -54.4314,22.5559 L -53.4777,22.3269 L -52.5,22.25 L -51.5223,22.3269 L -50.5686,22.5559  L -49.6626,22.9312 L -48.8263,23.4436 L -48.0806,24.0806 L -47.4436,24.8263 L -46.9312,25.6626 L -46.5559,26.5686  L -46.3269,27.5223 L -46.25,28.5 L -46.3269,29.4777 L -46.5559,30.4314 L -46.9312,31.3374 L -47.4436,32.1737  L -48.0806,32.9194 L -48.8263,33.5564 L -49.6626,34.0688 L -50.5686,34.4441 L -51,34.5477 L -51,56  L -20,56 L -17.1842,55.7784 L -14.4377,55.119 L -11.8282,54.0381 L -9.41987,52.5623 L -7.27208,50.7279  L -5.43769,48.5801 L -3.96188,46.1718 L -2.88098,43.5623 L -2.22161,40.8158 L -2,38 L -2.22161,35.1842  L -2.88098,32.4377 L -3.96188,29.8282 L -5.43769,27.4199 L -7.27208,25.2721 L -9.41987,23.4377 L -11.8282,21.9619  L -14.4377,20.881 L -17.1842,20.2216 L -20,20 L -39,20 L -39,-20.5 L -35.7149,-20.7585  L -32.5106,-21.5278 L -29.4662,-22.7889 L -26.6565,-24.5106 L -24.1508,-26.6508 L -22.0106,-29.1565 L -20.2889,-31.9662  L -19.0278,-35.0106 L -18.2585,-38.2149 L -18,-41.5 L -18.2585,-44.7851 L -19.0278,-47.9894 L -20.2889,-51.0338  L -22.0106,-53.8435 L -24.1508,-56.3492 L -26.6565,-58.4894 L -29.4662,-60.2111 L -32.5106,-61.4722 L -35.7149,-62.2415  L -39,-62.5 L -61,-62.5 z "
     stroke="black"
     fill="white"
     stroke-width="0.5"
     id="path1" /> -->
<g
   id="path1">
  <path
     d="M -62.5625 -64.0625 V 57.5625 H -20.0605 L -62.5625 57.5625 H -19.9395 L -16.9395 57.3262 L -13.9531 56.6094 L -11.1172 55.4355 L -8.498 53.8301 L -6.1641 51.8359 L -4.1699 49.502 L -2.5645 46.8828 L -1.3906 44.0469 L -0.6738 41.0605 L -0.4336 38 L -0.6738 34.9395 L -1.3906 31.9531 L -2.5645 29.1172 L -4.1699 26.498 L -6.1641 24.1641 L -8.498 22.1699 L -11.1172 20.5645 L -13.9531 19.3906 L -16.9395 18.6738 L -19.9395 18.4375 H -37.4375 V -19.0547 L -35.4688 -19.2109 L -32.0254 -20.0371 L -28.7539 -21.3926 L -25.7344 -23.2422 L -23.043 -25.543 L -20.7422 -28.2344 L -18.8926 -31.2539 L -17.5371 -34.5254 L -16.7109 -37.9688 L -16.4336 -41.5 L -16.7109 -45.0313 L -17.5371 -48.4746 L -18.8926 -51.7461 L -20.7422 -54.7656 L -23.043 -57.457 L -25.7344 -59.7578 L -28.7539 -61.6074 L -32.0254 -62.9629 L -35.4688 -63.7891 L -38.9395 -64.0625 Z"
     id="path6" stroke="black" fill="white" stroke-width="0.01" />
</g>
</svg>
