<?xml version="1.0" standalone="no"?>
<!DOCTYPE svg PUBLIC "-//W3C//DTD SVG 1.1//EN" "http://www.w3.org/Graphics/SVG/1.1/DTD/svg11.dtd">
<svg width="122mm" height="121mm" viewBox="-61 -63 122 121" xmlns="http://www.w3.org/2000/svg" version="1.1">
<title>OpenSCAD Model</title>
<path d="
M -29.01,-34 L -28.9731,-34.4693 L -28.8632,-34.9271 L -28.683,-35.362 L -28.4371,-35.7634 L -28.1313,-36.1213
 L -27.7734,-36.4271 L -27.372,-36.673 L -26.9371,-36.8532 L -26.4793,-36.9631 L -26.01,-37 L -25.5407,-36.9631
 L -25.0829,-36.8532 L -24.648,-36.673 L -24.2466,-36.4271 L -23.8887,-36.1213 L -23.5829,-35.7634 L -23.337,-35.362
 L -23.1568,-34.9271 L -23.0469,-34.4693 L -23.01,-34 L -23.0469,-33.5307 L -23.1568,-33.0729 L -23.337,-32.638
 L -23.5829,-32.2366 L -23.8887,-31.8787 L -24.2466,-31.5729 L -24.648,-31.327 L -25.0829,-31.1468 L -25.5407,-31.0369
 L -26.01,-31 L -26.4793,-31.0369 L -26.9371,-31.1468 L -27.372,-31.327 L -27.7734,-31.5729 L -28.1313,-31.8787
 L -28.4371,-32.2366 L -28.683,-32.638 L -28.8632,-33.0729 L -28.9731,-33.5307 z
" stroke="black" fill="black" stroke-width="0.5"/>
</svg>
