<?xml version="1.0" standalone="no"?>
<!DOCTYPE svg PUBLIC "-//W3C//DTD SVG 1.1//EN" "http://www.w3.org/Graphics/SVG/1.1/DTD/svg11.dtd">
<svg width="122mm" height="121mm" viewBox="-61 -63 122 121" xmlns="http://www.w3.org/2000/svg" version="1.1">
<title>OpenSCAD Model</title>
<path d="
M -42,-56 L -41.9631,-56.4693 L -41.8532,-56.9271 L -41.673,-57.362 L -41.4271,-57.7634 L -41.1213,-58.1213
 L -40.7634,-58.4271 L -40.362,-58.673 L -39.9271,-58.8532 L -39.4693,-58.9631 L -39,-59 L -38.5307,-58.9631
 L -38.0729,-58.8532 L -37.638,-58.673 L -37.2366,-58.4271 L -36.8787,-58.1213 L -36.5729,-57.7634 L -36.327,-57.362
 L -36.1468,-56.9271 L -36.0369,-56.4693 L -36,-56 L -36.0369,-55.5307 L -36.1468,-55.0729 L -36.327,-54.638
 L -36.5729,-54.2366 L -36.8787,-53.8787 L -37.2366,-53.5729 L -37.638,-53.327 L -38.0729,-53.1468 L -38.5307,-53.0369
 L -39,-53 L -39.4693,-53.0369 L -39.9271,-53.1468 L -40.362,-53.327 L -40.7634,-53.5729 L -41.1213,-53.8787
 L -41.4271,-54.2366 L -41.673,-54.638 L -41.8532,-55.0729 L -41.9631,-55.5307 z
" stroke="black" fill="black" stroke-width="0.01"/>
</svg>
