<?xml version="1.0" standalone="no"?>
<!DOCTYPE svg PUBLIC "-//W3C//DTD SVG 1.1//EN" "http://www.w3.org/Graphics/SVG/1.1/DTD/svg11.dtd">
<svg width="122mm" height="121mm" viewBox="-61 -63 122 121" xmlns="http://www.w3.org/2000/svg" version="1.1">
<title>OpenSCAD Model</title>

<!-- Pan encoder 2 -->
<!-- <path d="
M -40.6,-56 L -40.5803,-56.2503 L -40.5217,-56.4944 L -40.4256,-56.7264 L -40.2944,-56.9405 L -40.1314,-57.1314 L -39.9405,-57.2944 L -39.7264,-57.4256 L -39.4944,-57.5217 L -39.2503,-57.5803 L -39,-57.6 L -38.7497,-57.5803 L -38.5056,-57.5217 L -38.2736,-57.4256 L -38.0595,-57.2944 L -37.8686,-57.1314 L -37.7056,-56.9405 L -37.5744,-56.7264 L -37.4783,-56.4944 L -37.4197,-56.2503 L -37.4,-56 L -37.4197,-55.7497 L -37.4783,-55.5056 L -37.5744,-55.2736 L -37.7056,-55.0595 L -37.8686,-54.8686 L -38.0595,-54.7056 L -38.2736,-54.5744 L -38.5056,-54.4783 L -38.7497,-54.4197 L -39,-54.4 L -39.2503,-54.4197 L -39.4944,-54.4783 L -39.7264,-54.5744 L -39.9405,-54.7056 L -40.1314,-54.8686 L -40.2944,-55.0595 L -40.4256,-55.2736 L -40.5217,-55.5056 L -40.5803,-55.7497 z
" stroke="black" fill="black" stroke-width="0.1"/> -->
<circle cx="-39" cy="-56" r="0.1" stroke="black" fill="black" stroke-width="0.01" />
</svg>
