<?xml version="1.0" standalone="no"?>
<!DOCTYPE svg PUBLIC "-//W3C//DTD SVG 1.1//EN" "http://www.w3.org/Graphics/SVG/1.1/DTD/svg11.dtd">
<svg width="122mm" height="121mm" viewBox="-61 -63 122 121" xmlns="http://www.w3.org/2000/svg" version="1.1">
<title>OpenSCAD Model</title>

<!-- Pan motor 1 -->
<!-- <path d="
M -31.4995,28.1005 L -31.4798,27.8502 L -31.4212,27.6061 L -31.3251,27.3741 L -31.1939,27.16 L -31.0309,26.9691 L -30.84,26.8061 L -30.6259,26.6749 L -30.3939,26.5788 L -30.1498,26.5202 L -29.8995,26.5005 L -29.6492,26.5202 L -29.4051,26.5788 L -29.1731,26.6749 L -28.959,26.8061 L -28.7681,26.9691 L -28.6051,27.16 L -28.4739,27.3741 L -28.3778,27.6061 L -28.3192,27.8502 L -28.2995,28.1005 L -28.3192,28.3508 L -28.3778,28.5949 L -28.4739,28.8269 L -28.6051,29.041 L -28.7681,29.2319 L -28.959,29.3949 L -29.1731,29.5261 L -29.4051,29.6222 L -29.6492,29.6808 L -29.8995,29.7005 L -30.1498,29.6808 L -30.3939,29.6222 L -30.6259,29.5261 L -30.84,29.3949 L -31.0309,29.2319 L -31.1939,29.041 L -31.3251,28.8269 L -31.4212,28.5949 L -31.4798,28.3508 z
" stroke="black" fill="black" stroke-width="0.1"/> -->
<circle cx="-29.89950000000000000000" cy="28.10050000000000000000" r="0.1" stroke="black" fill="black" stroke-width="0.01" />
</svg>
