<?xml version="1.0" standalone="no"?>
<!DOCTYPE svg PUBLIC "-//W3C//DTD SVG 1.1//EN" "http://www.w3.org/Graphics/SVG/1.1/DTD/svg11.dtd">
<svg width="122mm" height="121mm" viewBox="-61 -63 122 121" xmlns="http://www.w3.org/2000/svg" version="1.1">
<title>OpenSCAD Model</title>

<!-- Pan motor 2 -->
<!-- <path d="
M -11.7005,47.8995 L -11.6808,47.6492 L -11.6222,47.4051 L -11.5261,47.1731 L -11.3949,46.959 L -11.2319,46.7681 L -11.041,46.6051 L -10.8269,46.4739 L -10.5949,46.3778 L -10.3508,46.3192 L -10.1005,46.2995 L -9.85021,46.3192 L -9.60608,46.3778 L -9.37412,46.4739 L -9.16005,46.6051 L -8.96913,46.7681 L -8.80608,46.959 L -8.67489,47.1731 L -8.57882,47.4051 L -8.5202,47.6492 L -8.50051,47.8995 L -8.5202,48.1498 L -8.57882,48.3939 L -8.67489,48.6259 L -8.80608,48.84 L -8.96913,49.0309 L -9.16005,49.1939 L -9.37412,49.3251 L -9.60608,49.4212 L -9.85021,49.4798 L -10.1005,49.4995 L -10.3508,49.4798 L -10.5949,49.4212 L -10.8269,49.3251 L -11.041,49.1939 L -11.2319,49.0309 L -11.3949,48.84 L -11.5261,48.6259 L -11.6222,48.3939 L -11.6808,48.1498 z
" stroke="black" fill="black" stroke-width="0.1"/> -->
<circle cx="-10.100505" cy="47.8995" r="0.1" stroke="black" fill="black" stroke-width="0.01" />
</svg>
