<?xml version="1.0" standalone="no"?>
<!DOCTYPE svg PUBLIC "-//W3C//DTD SVG 1.1//EN" "http://www.w3.org/Graphics/SVG/1.1/DTD/svg11.dtd">
<svg width="122mm" height="121mm" viewBox="-61 -63 122 121" xmlns="http://www.w3.org/2000/svg" version="1.1">
<title>OpenSCAD Model</title>
<path d="
M -54.99,-34 L -54.9531,-34.4693 L -54.8432,-34.9271 L -54.663,-35.362 L -54.4171,-35.7634 L -54.1113,-36.1213
 L -53.7534,-36.4271 L -53.352,-36.673 L -52.9171,-36.8532 L -52.4593,-36.9631 L -51.99,-37 L -51.5207,-36.9631
 L -51.0629,-36.8532 L -50.628,-36.673 L -50.2266,-36.4271 L -49.8687,-36.1213 L -49.5629,-35.7634 L -49.317,-35.362
 L -49.1368,-34.9271 L -49.0269,-34.4693 L -48.99,-34 L -49.0269,-33.5307 L -49.1368,-33.0729 L -49.317,-32.638
 L -49.5629,-32.2366 L -49.8687,-31.8787 L -50.2266,-31.5729 L -50.628,-31.327 L -51.0629,-31.1468 L -51.5207,-31.0369
 L -51.99,-31 L -52.4593,-31.0369 L -52.9171,-31.1468 L -53.352,-31.327 L -53.7534,-31.5729 L -54.1113,-31.8787
 L -54.4171,-32.2366 L -54.663,-32.638 L -54.8432,-33.0729 L -54.9531,-33.5307 z
" stroke="black" fill="black" stroke-width="0.5"/>
</svg>
