<?xml version="1.0" standalone="no"?>
<!DOCTYPE svg PUBLIC "-//W3C//DTD SVG 1.1//EN" "http://www.w3.org/Graphics/SVG/1.1/DTD/svg11.dtd">
<svg width="122mm" height="121mm" viewBox="-61 -63 122 121" xmlns="http://www.w3.org/2000/svg" version="1.1">
<title>OpenSCAD Model</title>
<!-- <path d="
M -49.5,-41.5 L -49.3707,-43.1426 L -48.9861,-44.7447 L -48.3556,-46.2669 L -47.4947,-47.6717 L -46.4246,-48.9246
 L -45.1717,-49.9947 L -43.7669,-50.8556 L -42.2447,-51.4861 L -40.6426,-51.8707 L -39,-52 L -37.3574,-51.8707
 L -35.7553,-51.4861 L -34.2331,-50.8556 L -32.8283,-49.9947 L -31.5754,-48.9246 L -30.5053,-47.6717 L -29.6444,-46.2669
 L -29.0139,-44.7447 L -28.6293,-43.1426 L -28.5,-41.5 L -28.6293,-39.8574 L -29.0139,-38.2553 L -29.6444,-36.7331
 L -30.5053,-35.3283 L -31.5754,-34.0754 L -32.8283,-33.0053 L -34.2331,-32.1444 L -35.7553,-31.5139 L -37.3574,-31.1293
 L -39,-31 L -40.6426,-31.1293 L -42.2447,-31.5139 L -43.7669,-32.1444 L -45.1717,-33.0053 L -46.4246,-34.0754
 L -47.4947,-35.3283 L -48.3556,-36.7331 L -48.9861,-38.2553 L -49.3707,-39.8574 z
" stroke="black" fill="black" stroke-width="0.01"/> -->
<!-- 10.47 matches the original hole.  Bit is 3.125mm.  Subtract half that from the radius. -->
<circle cx="-39.0" cy="-41.5" r="8.9075" stroke="black" fill="white" stroke-width="0.01" />
</svg>
