<?xml version="1.0" standalone="no"?>
<!DOCTYPE svg PUBLIC "-//W3C//DTD SVG 1.1//EN" "http://www.w3.org/Graphics/SVG/1.1/DTD/svg11.dtd">
<svg width="122mm" height="121mm" viewBox="-61 -63 122 121" xmlns="http://www.w3.org/2000/svg" version="1.1">
<title>OpenSCAD Model</title>
<path d="
M 46.3824,10.9911 L 46.3824,5.00053 L 47.2157,5.00053 L 47.2157,7.52586 L 53.4519,7.52586 L 53.4519,8.46574
 L 47.2157,8.46574 L 47.2157,10.9911 z
M 46.3824,3.99023 L 46.3824,1.19905 L 47.1037,1.19905 L 47.1037,2.12466 L 52.7306,2.12466 L 52.7306,1.19905
 L 53.4519,1.19905 L 53.4519,3.99023 L 52.7306,3.99023 L 52.7306,3.06456 L 47.1037,3.06456 L 47.1037,3.99023
 z
M 46.3824,-0.705008 L 46.3824,-1.64483 L 52.6186,-1.64483 L 52.6186,-5.17655 L 53.4519,-5.17655 L 53.4519,-0.705008
 z
M 46.3824,-4.44053 L 46.3824,-10.4311 L 47.2157,-10.4311 L 47.2157,-7.90574 L 53.4519,-7.90574 L 53.4519,-6.96585
 L 47.2157,-6.96585 L 47.2157,-4.24053 z
" stroke="black" fill="black" stroke-width="0.5"/>
</svg>
