<?xml version="1.0" standalone="no"?>
<!DOCTYPE svg PUBLIC "-//W3C//DTD SVG 1.1//EN" "http://www.w3.org/Graphics/SVG/1.1/DTD/svg11.dtd">
<svg width="122mm" height="121mm" viewBox="-61 -63 122 121" xmlns="http://www.w3.org/2000/svg" version="1.1">
<title>OpenSCAD Model</title>
<path d="
M 7.10051,-47.8995 L 7.13744,-48.3688 L 7.24734,-48.8265 L 7.42749,-49.2615 L 7.67345,-49.6629 L 7.97918,-50.0208
 L 8.33715,-50.3265 L 8.73853,-50.5725 L 9.17345,-50.7527 L 9.6312,-50.8626 L 10.1005,-50.8995 L 10.5698,-50.8626
 L 11.0276,-50.7527 L 11.4625,-50.5725 L 11.8639,-50.3265 L 12.2218,-50.0208 L 12.5276,-49.6628 L 12.7735,-49.2615
 L 12.9537,-48.8265 L 13.0636,-48.3688 L 13.1005,-47.8995 L 13.0636,-47.4302 L 12.9537,-46.9724 L 12.7735,-46.5375
 L 12.5276,-46.1361 L 12.2218,-45.7782 L 11.8639,-45.4724 L 11.4625,-45.2265 L 11.0276,-45.0463 L 10.5698,-44.9364
 L 10.1005,-44.8995 L 9.6312,-44.9364 L 9.17345,-45.0463 L 8.73853,-45.2265 L 8.33715,-45.4724 L 7.97918,-45.7782
 L 7.67345,-46.1361 L 7.42749,-46.5375 L 7.24734,-46.9724 L 7.13744,-47.4302 z
" stroke="black" fill="black" stroke-width="0.5"/>
</svg>
