<?xml version="1.0" standalone="no"?>
<!DOCTYPE svg PUBLIC "-//W3C//DTD SVG 1.1//EN" "http://www.w3.org/Graphics/SVG/1.1/DTD/svg11.dtd">
<svg width="122mm" height="121mm" viewBox="-61 -63 122 121" xmlns="http://www.w3.org/2000/svg" version="1.1">
<title>OpenSCAD Model</title>
<!-- <path d="
M 28.5,36.5 L 28.6293,34.8574 L 29.0139,33.2553 L 29.6444,31.7331 L 30.5053,30.3283 L 31.5754,29.0754
 L 32.8283,28.0053 L 34.2331,27.1444 L 35.7553,26.5139 L 37.3574,26.1293 L 39,26 L 40.6426,26.1293
 L 42.2447,26.5139 L 43.7669,27.1444 L 45.1717,28.0053 L 46.4246,29.0754 L 47.4947,30.3283 L 48.3556,31.7331
 L 48.9861,33.2553 L 49.3707,34.8574 L 49.5,36.5 L 49.3707,38.1426 L 48.9861,39.7447 L 48.3556,41.2669
 L 47.4947,42.6717 L 46.4246,43.9246 L 45.1717,44.9947 L 43.7669,45.8556 L 42.2447,46.4861 L 40.6426,46.8707
 L 39,47 L 37.3574,46.8707 L 35.7553,46.4861 L 34.2331,45.8556 L 32.8283,44.9947 L 31.5754,43.9246
 L 30.5053,42.6717 L 29.6444,41.2669 L 29.0139,39.7447 L 28.6293,38.1426 z
" stroke="black" fill="black" stroke-width="0.01"/> -->
<!-- 10.47 matches the original hole.  Bit is 3.125mm.  Subtract half that from the radius.  8.9075 -->
<circle cx="39.0" cy="36.5" r="8.9075" stroke="black" fill="white" stroke-width="0.01" />
</svg>
