<?xml version="1.0" standalone="no"?>
<!DOCTYPE svg PUBLIC "-//W3C//DTD SVG 1.1//EN" "http://www.w3.org/Graphics/SVG/1.1/DTD/svg11.dtd">
<svg width="122mm" height="121mm" viewBox="-61 -63 122 121" xmlns="http://www.w3.org/2000/svg" version="1.1">
<title>OpenSCAD Model</title>

<!-- Tilt encoder 2 -->
<!-- <path d="
M 37.4,51 L 37.4197,50.7497 L 37.4783,50.5056 L 37.5744,50.2736 L 37.7056,50.0595 L 37.8686,49.8686 L 38.0595,49.7056 L 38.2736,49.5744 L 38.5056,49.4783 L 38.7497,49.4197 L 39,49.4 L 39.2503,49.4197 L 39.4944,49.4783 L 39.7264,49.5744 L 39.9405,49.7056 L 40.1314,49.8686 L 40.2944,50.0595 L 40.4256,50.2736 L 40.5217,50.5056 L 40.5803,50.7497 L 40.6,51 L 40.5803,51.2503 L 40.5217,51.4944 L 40.4256,51.7264 L 40.2944,51.9405 L 40.1314,52.1314 L 39.9405,52.2944 L 39.7264,52.4256 L 39.4944,52.5217 L 39.2503,52.5803 L 39,52.6 L 38.7497,52.5803 L 38.5056,52.5217 L 38.2736,52.4256 L 38.0595,52.2944 L 37.8686,52.1314 L 37.7056,51.9405 L 37.5744,51.7264 L 37.4783,51.4944 L 37.4197,51.2503 z
" stroke="black" fill="black" stroke-width="0.1"/> -->
<circle cx="39.0" cy="51.0" r="0.1" stroke="black" fill="black" stroke-width="0.01" />
</svg>
