<?xml version="1.0" standalone="no"?>
<!DOCTYPE svg PUBLIC "-//W3C//DTD SVG 1.1//EN" "http://www.w3.org/Graphics/SVG/1.1/DTD/svg11.dtd">
<svg width="122mm" height="121mm" viewBox="-61 -63 122 121" xmlns="http://www.w3.org/2000/svg" version="1.1">
<title>OpenSCAD Model</title>

<!-- Tilt encoder 1 -->
<!-- <path d="
M 24.41,29 L 24.4297,28.7497 L 24.4883,28.5056 L 24.5844,28.2736 L 24.7156,28.0595 L 24.8786,27.8686 L 25.0695,27.7056 L 25.2836,27.5744 L 25.5156,27.4783 L 25.7597,27.4197 L 26.01,27.4 L 26.2603,27.4197 L 26.5044,27.4783 L 26.7364,27.5744 L 26.9505,27.7056 L 27.1414,27.8686 L 27.3044,28.0595 L 27.4356,28.2736 L 27.5317,28.5056 L 27.5903,28.7497 L 27.61,29 L 27.5903,29.2503 L 27.5317,29.4944 L 27.4356,29.7264 L 27.3044,29.9405 L 27.1414,30.1314 L 26.9505,30.2944 L 26.7364,30.4256 L 26.5044,30.5217 L 26.2603,30.5803 L 26.01,30.6 L 25.7597,30.5803 L 25.5156,30.5217 L 25.2836,30.4256 L 25.0695,30.2944 L 24.8786,30.1314 L 24.7156,29.9405 L 24.5844,29.7264 L 24.4883,29.4944 L 24.4297,29.2503 z
" stroke="black" fill="black" stroke-width="0.1"/> -->
<circle cx="26.01" cy="29.0" r="0.1" stroke="black" fill="black" stroke-width="0.01" />
</svg>
