<?xml version="1.0" standalone="no"?>
<!DOCTYPE svg PUBLIC "-//W3C//DTD SVG 1.1//EN" "http://www.w3.org/Graphics/SVG/1.1/DTD/svg11.dtd">
<svg width="122mm" height="121mm" viewBox="-61 -63 122 121" xmlns="http://www.w3.org/2000/svg" version="1.1">
<title>OpenSCAD Model</title>
<path d="
M 23.01,29 L 23.0469,28.5307 L 23.1568,28.0729 L 23.337,27.638 L 23.5829,27.2366 L 23.8887,26.8787
 L 24.2466,26.5729 L 24.648,26.327 L 25.0829,26.1468 L 25.5407,26.0369 L 26.01,26 L 26.4793,26.0369
 L 26.9371,26.1468 L 27.372,26.327 L 27.7734,26.5729 L 28.1313,26.8787 L 28.4371,27.2366 L 28.683,27.638
 L 28.8632,28.0729 L 28.9731,28.5307 L 29.01,29 L 28.9731,29.4693 L 28.8632,29.9271 L 28.683,30.362
 L 28.4371,30.7634 L 28.1313,31.1213 L 27.7734,31.4271 L 27.372,31.673 L 26.9371,31.8532 L 26.4793,31.9631
 L 26.01,32 L 25.5407,31.9631 L 25.0829,31.8532 L 24.648,31.673 L 24.2466,31.4271 L 23.8887,31.1213
 L 23.5829,30.7634 L 23.337,30.362 L 23.1568,29.9271 L 23.0469,29.4693 z
" stroke="black" fill="black" stroke-width="0.5"/>
</svg>
