<?xml version="1.0" standalone="no"?>
<!DOCTYPE svg PUBLIC "-//W3C//DTD SVG 1.1//EN" "http://www.w3.org/Graphics/SVG/1.1/DTD/svg11.dtd">
<svg width="122mm" height="121mm" viewBox="-61 -63 122 121" xmlns="http://www.w3.org/2000/svg" version="1.1">
<title>OpenSCAD Model</title>

<!-- Tilt encoder 3 -->
<!-- <path d="
M 50.39,29 L 50.4097,28.7497 L 50.4683,28.5056 L 50.5644,28.2736 L 50.6956,28.0595 L 50.8586,27.8686 L 51.0495,27.7056 L 51.2636,27.5744 L 51.4956,27.4783 L 51.7397,27.4197 L 51.99,27.4 L 52.2403,27.4197 L 52.4844,27.4783 L 52.7164,27.5744 L 52.9305,27.7056 L 53.1214,27.8686 L 53.2844,28.0595 L 53.4156,28.2736 L 53.5117,28.5056 L 53.5703,28.7497 L 53.59,29 L 53.5703,29.2503 L 53.5117,29.4944 L 53.4156,29.7264 L 53.2844,29.9405 L 53.1214,30.1314 L 52.9305,30.2944 L 52.7164,30.4256 L 52.4844,30.5217 L 52.2403,30.5803 L 51.99,30.6 L 51.7397,30.5803 L 51.4956,30.5217 L 51.2636,30.4256 L 51.0495,30.2944 L 50.8586,30.1314 L 50.6956,29.9405 L 50.5644,29.7264 L 50.4683,29.4944 L 50.4097,29.2503 z
" stroke="black" fill="black" stroke-width="0.1"/> -->
<circle cx="51.99000000000000000000" cy="29.00000000000000000000" r="0.1" stroke="black" fill="black" stroke-width="0.01" />
</svg>
