<?xml version="1.0" standalone="no"?>
<!DOCTYPE svg PUBLIC "-//W3C//DTD SVG 1.1//EN" "http://www.w3.org/Graphics/SVG/1.1/DTD/svg11.dtd">
<svg width="122mm" height="121mm" viewBox="-61 -63 122 121" xmlns="http://www.w3.org/2000/svg" version="1.1">
<title>OpenSCAD Model</title>
<path d="
M 48.99,29 L 49.0269,28.5307 L 49.1368,28.0729 L 49.317,27.638 L 49.5629,27.2366 L 49.8687,26.8787
 L 50.2266,26.5729 L 50.628,26.327 L 51.0629,26.1468 L 51.5207,26.0369 L 51.99,26 L 52.4593,26.0369
 L 52.9171,26.1468 L 53.352,26.327 L 53.7534,26.5729 L 54.1113,26.8787 L 54.4171,27.2366 L 54.663,27.638
 L 54.8432,28.0729 L 54.9531,28.5307 L 54.99,29 L 54.9531,29.4693 L 54.8432,29.9271 L 54.663,30.362
 L 54.4171,30.7634 L 54.1113,31.1213 L 53.7534,31.4271 L 53.352,31.673 L 52.9171,31.8532 L 52.4593,31.9631
 L 51.99,32 L 51.5207,31.9631 L 51.0629,31.8532 L 50.628,31.673 L 50.2266,31.4271 L 49.8687,31.1213
 L 49.5629,30.7634 L 49.317,30.362 L 49.1368,29.9271 L 49.0269,29.4693 z
" stroke="black" fill="black" stroke-width="0.01"/>
</svg>
